<svg width="32" height="32" viewBox="0 0 32 32" fill="none" xmlns="http://www.w3.org/2000/svg">
<path d="M16.0001 2.66669C23.3638 2.66669 29.3334 8.63622 29.3334 16C29.3334 23.3638 23.3638 29.3334 16.0001 29.3334C8.63628 29.3334 2.66675 23.3638 2.66675 16C2.66675 8.63622 8.63628 2.66669 16.0001 2.66669ZM16.213 21.3334C13.4991 21.3334 11.0558 22.4916 9.35043 24.3408C11.1739 25.7966 13.4854 26.6667 16.0001 26.6667C18.6261 26.6667 21.0303 25.7178 22.8889 24.1442C21.1942 22.4099 18.8293 21.3334 16.213 21.3334ZM16.0001 5.33335C10.109 5.33335 5.33341 10.109 5.33341 16C5.33341 18.4142 6.13541 20.641 7.48751 22.4286C9.67527 20.1122 12.7753 18.6667 16.213 18.6667C19.5255 18.6667 22.5245 20.0088 24.6958 22.179C25.9369 20.4356 26.6667 18.3031 26.6667 16C26.6667 10.109 21.8911 5.33335 16.0001 5.33335ZM16.0001 6.66669C18.9455 6.66669 21.3334 9.0545 21.3334 12C21.3334 14.9455 18.9455 17.3334 16.0001 17.3334C13.0546 17.3334 10.6667 14.9455 10.6667 12C10.6667 9.0545 13.0546 6.66669 16.0001 6.66669ZM16.0001 9.33335C14.5273 9.33335 13.3334 10.5273 13.3334 12C13.3334 13.4728 14.5273 14.6667 16.0001 14.6667C17.4729 14.6667 18.6667 13.4728 18.6667 12C18.6667 10.5273 17.4729 9.33335 16.0001 9.33335Z" fill="white"/>
</svg>
